<svg xmlns="http://www.w3.org/2000/svg" width="263.559" height="299.996" viewBox="0 0 263.559 299.996"><path stroke="#000" stroke-miterlimit="10" d="M220.279 206.482M78.636 206.482M198.895 275.815" fill="none"/><path fill-rule="evenodd" clip-rule="evenodd" fill="#fff" d="M256.455 69.752l-117.583-67.85c-4.396-2.542-9.806-2.542-14.203 0l-117.561 67.85c-4.406 2.541-7.108 7.228-7.108 12.301v135.829c0 5.064 2.702 9.76 7.099 12.301l117.561 67.915c4.406 2.531 9.815 2.531 14.212 0l117.583-67.915c4.401-2.541 7.108-7.236 7.108-12.301v-135.82c0-5.082-2.707-9.769-7.108-12.31z"/><path fill-rule="evenodd" clip-rule="evenodd" fill="#99C222" d="M138.872 1.902c-4.396-2.537-9.806-2.537-14.203 0l-55.936 32.282h126.083l-55.944-32.282zM57.353 112.944h-.382v-.728c-9.175-17.458-15.266-38.34-17.306-61.257l-32.557 18.793c-4.406 2.541-7.108 7.228-7.108 12.301v135.829c0 5.064 2.702 9.76 7.099 12.301l32.646 18.857c2.122-22.559 8.171-43.119 17.227-60.346v-.728h.382c8.384-15.708 19.225-28.562 31.849-37.512-12.625-8.948-23.466-21.802-31.85-37.51zM70.359 266.728l54.301 31.37c4.406 2.531 9.815 2.531 14.212 0l54.315-31.37h-122.828zM67.969 49.403c.566 5.667 1.404 11.201 2.555 16.551h122.515c1.151-5.35 1.989-10.883 2.555-16.551h-127.625zM256.46 69.752l-32.562-18.788c-2.039 22.922-8.13 43.804-17.31 61.262v.718h-.378c-8.383 15.708-19.225 28.562-31.849 37.511 12.624 8.95 23.466 21.804 31.849 37.512h.378v.718c9.061 17.228 15.109 37.788 17.231 60.346l32.641-18.848c4.396-2.541 7.099-7.236 7.099-12.301v-135.82c0-5.082-2.703-9.769-7.099-12.31zM193.044 234.962h-122.524c-1.146 5.35-1.984 10.883-2.551 16.546h127.625c-.566-5.663-1.404-11.196-2.55-16.546zM74.691 81.178c1.984 5.865 4.309 11.399 6.952 16.546h100.278c2.643-5.147 4.968-10.681 6.952-16.546h-114.182zM181.921 203.187h-100.278c-2.643 5.147-4.968 10.681-6.952 16.546h114.182c-1.984-5.866-4.31-11.399-6.952-16.546zM91.182 112.944c11.187 14.52 25.375 23.369 40.6 23.369s29.413-8.849 40.6-23.369h-81.2zM131.782 164.598c-15.225 0-29.413 8.849-40.6 23.369h81.2c-11.187-14.521-25.376-23.369-40.6-23.369z"/></svg>